/* XPM */
static char *_624117707958[] = {
/* columns rows colors chars-per-pixel */
"50 50 242 2 ",
"   c #57636D",
".  c #576372",
"X  c #576471",
"o  c #556573",
"O  c #566472",
"+  c #576472",
"@  c #566572",
"#  c #566473",
"$  c #576573",
"%  c #546673",
"&  c #576673",
"*  c #576374",
"=  c #566375",
"-  c #576574",
";  c #586371",
":  c #586372",
">  c #586373",
",  c #586470",
"<  c #596470",
"1  c #596571",
"2  c #5A6470",
"3  c #5A6471",
"4  c #5B6471",
"5  c #5A6670",
"6  c #5B6771",
"7  c #586473",
"8  c #596473",
"9  c #596573",
"0  c #5A6472",
"q  c #5B6572",
"w  c #5A6473",
"e  c #5B6473",
"r  c #5B6573",
"t  c #5A6672",
"y  c #5B6672",
"u  c #5B6772",
"i  c #5B6773",
"p  c #5C6572",
"a  c #5C6473",
"s  c #5D6473",
"d  c #586374",
"f  c #596475",
"g  c #5A6574",
"h  c #5B6574",
"j  c #5A6674",
"k  c #5C6674",
"l  c #5D6674",
"z  c #5C6675",
"x  c #5D6675",
"c  c #5E6675",
"v  c #566977",
"b  c #5A6873",
"n  c #62707D",
"m  c #60707E",
"M  c #60717E",
"N  c #63707E",
"B  c #62717E",
"V  c #62707F",
"C  c #62727F",
"Z  c #63727F",
"A  c #62737F",
"S  c #617180",
"D  c #627080",
"F  c #637181",
"G  c #627281",
"H  c #637382",
"J  c #627283",
"K  c #627384",
"L  c #708191",
"P  c #7B8898",
"I  c #78899A",
"U  c #7B8B9A",
"Y  c #7C8999",
"T  c #7D8A9A",
"R  c #7C8B9B",
"E  c #798D9B",
"W  c #7A8C9A",
"Q  c #7B8C9B",
"!  c #7A8D9B",
"~  c #7C8C9B",
"^  c #7C8D9B",
"/  c #7E8D9A",
"(  c #7C8E9A",
")  c #7C8E9B",
"_  c #7B8B9D",
"`  c #7C8B9D",
"'  c #788C9C",
"]  c #798D9C",
"[  c #798D9D",
"{  c #7A8C9C",
"}  c #7B8D9C",
"|  c #7A8C9D",
" . c #7B8D9D",
".. c #798E9C",
"X. c #7B8D9E",
"o. c #798E9E",
"O. c #7B8E9E",
"+. c #7B8E9F",
"@. c #7B8F9F",
"#. c #7C8C9C",
"$. c #7D8C9C",
"%. c #7C8D9C",
"&. c #7C8C9D",
"*. c #7E8C9C",
"=. c #7E8D9D",
"-. c #7D8E9C",
";. c #7C8E9D",
":. c #7D8E9D",
">. c #7C8F9D",
",. c #7F8E9D",
"<. c #7F8F9D",
"1. c #7C8D9E",
"2. c #7D8D9E",
"3. c #7C8D9F",
"4. c #7D8D9F",
"5. c #7E8D9F",
"6. c #7C8E9F",
"7. c #7F8F9E",
"8. c #7F8F9F",
"9. c #7D909E",
"0. c #7D8DA0",
"q. c #7C8EA1",
"w. c #7F8EA1",
"e. c #7C90A0",
"r. c #7F90A1",
"t. c #818C9D",
"y. c #808E9D",
"u. c #818E9D",
"i. c #818D9E",
"p. c #808F9E",
"a. c #818E9F",
"s. c #80909E",
"d. c #80909F",
"f. c #82909E",
"g. c #8090A0",
"h. c #8798A5",
"j. c #8699AA",
"k. c #8C9BAD",
"l. c #8B9DAE",
"z. c #8B9EAE",
"x. c #8C9DAE",
"c. c #8FA1B0",
"v. c #94A7B5",
"b. c #96A8B4",
"n. c #97A8B4",
"m. c #96A9B4",
"M. c #96A8B5",
"N. c #96A9B5",
"B. c #96A8B6",
"V. c #97A8B6",
"C. c #96A9B6",
"Z. c #96A8B7",
"A. c #97A9B7",
"S. c #97AAB6",
"D. c #97AAB7",
"F. c #98A9B7",
"G. c #98AAB6",
"H. c #97A9B8",
"J. c #9AAAB9",
"K. c #9BAFBF",
"L. c #9DAFBF",
"P. c #9BB0BF",
"I. c #9CB0BE",
"U. c #9DB0BE",
"Y. c #9CB0BF",
"T. c #9FB1BF",
"R. c #9DAFC0",
"E. c #9CB0C0",
"W. c #9CB1C1",
"Q. c #9DB2C0",
"!. c #9DB2C1",
"~. c #A3B7C7",
"^. c #A7B9C7",
"/. c #A4B8C8",
"(. c #A7B9C9",
"). c #ABBDCB",
"_. c #A9BECB",
"`. c #A9BDCD",
"'. c #ABBCCD",
"]. c #ABBDCD",
"[. c #A9BECD",
"{. c #AABFCD",
"}. c #A9BDCE",
"|. c #A9BDCF",
" X c #ABBCCF",
".X c #A9BFCE",
"XX c #AABECE",
"oX c #ABBECE",
"OX c #AABFCE",
"+X c #ABBFCF",
"@X c #ACBDCC",
"#X c #AEBDCE",
"$X c #ACBECE",
"%X c #ADBFCE",
"&X c #A9BCD1",
"*X c #AABED0",
"=X c #ADBED0",
"-X c #ACBFD0",
";X c #ADBFD0",
":X c #AFBED0",
">X c #AEC0CD",
",X c #ACC0CE",
"<X c #ADC1CF",
"1X c #AEC0CF",
"2X c #AEC1CF",
"3X c #ACC0D0",
"4X c #ADC1D1",
"5X c #AFC0D1",
"6X c #AEC2D2",
"7X c #B4C6D5",
"8X c #B6C7D4",
"9X c #B7C7D4",
"0X c #B7C8D5",
"qX c #B7C9D6",
"wX c #C1D4E0",
"eX c #C8DAE6",
"rX c #CBDEEA",
"tX c #CADFEA",
"yX c #CDDDEA",
"uX c #CCDFEB",
"iX c #CDDFEB",
"pX c #CFDFEC",
"aX c #CBE0EB",
"sX c #CCE0EB",
"dX c #CCE1EC",
"fX c #CDE1EC",
"gX c #CEE0EC",
"hX c #D0E3EF",
"jX c #D1E5F1",
"kX c #D2E5F0",
"lX c #D2E5F1",
"zX c #D1E6F0",
"xX c #D2E7F1",
"cX c #D1E5F2",
"vX c #D2E5F2",
"bX c #D2E6F3",
"nX c #D3E6F3",
"mX c #D4E6F1",
"MX c #D5E5F3",
"NX c #D4E6F3",
"BX c #D2E6F4",
"VX c #D2E6F5",
/* pixels */
"b 1 1 g g 1 1 1 g $ 1 1 1 1 1 1 g 1 1 g . d ; 1 g g 1 1 1 1 d g g 1 g 1 1 1 1 d g d g 1 g 1 1 4 4 x ",
"S.S.H.S.S.F.S.S.S.S.H.S.S.S.S.H.H.H.S.H.v.L 0.v.S.v.b.S.S.v.Z.S.v.V.v.F.n.v.v.S.S.S.S.S.v.V.V.h.1 ` ",
";X;X3X3X;X;X;X;X*X5X*X3X*X3X3X3X5X$X*X5X!.; _ ;X;X$XOXOXOXOXOXOX$X$XOXOX$X$XOXOXOXOXOXOX$X$X$Xz.- { ",
"OXOXOXOXOXOXOXOXOXOX,XOX,XOXOXOXOXOXOXOX!.; { OXOXOXOXOXOXOXOXOXOXOXOXOX$XOXOXOXOXOXOXOXOXOX$Xk.1 { ",
"OXOXOXOXOXOXOXOXOXOXOXOXOXOXOXOXOXOXOXOXW.. 0.OXOXOXOXOXOXOXOXOXOXOXOXOXOXOXOXOXOXOXOXOXOXOXOXz.$ o.",
"OXOXOXOXOXOXOXOXOXOXOXOXOXOXOXOXOXOXOXOXK.. 0.OXOXOXOXOXOXOXOXOXOXOXOXOXOXOXOXOXOXOXOXOXOXOX*Xl.1 q.",
"OXOXOXOXOXOXOXOXOXOXOXOXOXOXOXOXOXOXOXOXI.; 0.OXOXOXOXOXOXOXOXOXOXOXOXOXOXOXOXOXOXOXOXOXOXOXOXl.1 { ",
"OXOXOXOXOXOXOXOXOXOXOXOXOXOXOXOXOXOXOXOXI.; ,.OXOXOXOXOXOXOXOXOXOXOXOXOXOXOXOXOXOXOXOXOXOXOXOXk.$ 9.",
"OXOXOXOXOXOXOXOXOXOXOXOX.X.X.XOX.X.X,X,XW.. q.,XOXOXOXOXOXOXOXOXOXOXOXOXOXOXOXOXOXOXOXOXOXOXOXk.$ 9.",
"OXOXOXOXOXOXOXOXOXOXOXOX.X,XOXOX.X3X,X,XL.. { ,XOXOXOXOXOXOXOXOXOX.XOXOXOXOXOXOXOXOXOXOXOXOXOXz., { ",
"OXOXOXOXOXOXOX,XOXOXOXOX,X,X,X,X.X.X3X3XR.. { 3XOXOXOXOX.X.XOXOX.X.XOXOXOXOXOXOXOXOXOXOXOXOXOXz.1 { ",
"!.!.!.!.!.!.!.!.!.!.!.!.W.W.W.!.W.W.!.!.H.c 9.!.R.W.R.W.K.K.R.R.K.R.I.I.K.K.K.K.I.K.K.K.K.K.K.j.1 { ",
"x x x g x x x g x x g x x g g x $ 1 g g g g j x g g g g g g g x g g x g g g g 1 g 1 x g 1 g g g 1 g ",
"_ U Q Q Q Q { U R ,.M ,.{ ,.{ ,.Q 9.9.{ { ,.9.{ ,.,.{ ,.{ { Q 9.{ { & 9.,.{ ,.,.^ ^ { ,.,.{ ,._ ^ 9.",
"tXtXtXtXtXyXtXyXeXg.G hXdXdXtXtXdXyXdXdXtXtXdXyXdXaXyXdXaXtXsXaXpXwX1 { pXdXdXdXdXdXdXdXpXpXdXdXdXdX",
"OXOXOXOXOXOXOXOXOX,.G 5X,XOXOXOX,XOXOXOXOX.X,XOXOXOXOXOXOXOX,X,X,X(.1 _ OXOXOXOXOXOXOXOXOXOXOXOXOXOX",
"OXOXOXOXOXOXOXOX,X9.S 5XOXOXOXOXOXOXOXOXOXOXOXOXOXOXOXOXOXOXOXOX,X~.v 9.OXOXOXOXOXOXOXOXOXOXOXOXOXOX",
"OXOXOXOXOXOXOXOX,X9.S 5XOXOXOXOXOXOXOXOXOXOXOXOXOXOXOXOXOXOXOXOX,X~., 9.OXOXOXOXOXOXOXOXOXOXOXOXOX,X",
"OXOXOXOXOXOXOXOX,X9.A 3XOXOXOXOXOXOXOXOXOXOXOXOXOXOXOXOXOXOXOXOX,X~.$ q.OXOXOXOXOXOXOXOXOXOXOXOXOXOX",
"OXOXOXOXOXOXOXOX,X9.S 5XOXOXOXOXOXOXOXOXOXOXOXOXOXOXOXOXOXOXOXOX,X~.  9.OXOXOXOXOXOXOXOXOXOXOXOXOXOX",
"OXOXOXOXOXOXOXOXOX9.M 5XOXOXOXOXOXOXOXOXOXOXOXOXOXOXOXOXOXOXOXOX,X~.1 e.OXOXOXOXOXOXOXOXOXOXOXOXOXOX",
"OXOXOXOXOXOXOXOXOX,.S 5XOXOXOXOXOXOXOXOXOXOXOXOXOXOXOXOXOXOXOXOX,X~.1 9.OXOXOXOXOXOXOX.XOXOXOXOXOXOX",
"OXOXOXOX.XOX,X,X,Xr.K 5XOXOXOXOXOXOXOXOXOXOXOXOXOXOXOXOXOXOXOXOX,X~.1 { OXOXOXOXOX,XOX,XOXOXOXOXOXOX",
"3X3X3X3X3X3X3X3X3Xr.S 6X,X5X;X,X3X3X3X3X3X3X3X3X3X3X3X3X3X3X3X3X5X(.b e.3X3X,X5X3X*X*X5X3X3X3X3X3X,X",
"Q Q Q Q Q ^ Q Q R u.n ^ ^ { t.R ,.^ { ` { ` ^ Q { { { ,.{ { ,.Q ^ ` 5 ,.Q { R U ^ R ` U ^ ^ { ` { { ",
"P U P U P P P P P R P P R R P R U P R P R - t.u.,.,.,.t.,.,.,.,.t.` R ^ R R R R R R R R R R R t.. ,.",
"cXBXbXhXhXbXhXhXjXhXjXjXhXhXbXhXhXbXjXjX7X. U bXmXmXBXBXbXbXbXbXbXbXjXjXmXMXjXMXmXmXbXbXjXjXbXJ.$ I ",
"&X.X.X(.OX$X$X$X}.}.}.}.@X'.OX}.`.OXOXOXR.. ^ ).).OXOX}.`.`.OXOX}.}.;XOX#X$X$X$X$X$XOXOX$X$X$Xk.  Q ",
"OXOXOXOXOXOXOXOXOXOXOXOXOXOXOXOXOXOXOXOXI.. ,.OXOXOXOXOXOXOXOXOXOXOXOXOXOXOXOXOX$XOXOXOXOXOX$Xx.$ { ",
"OXOXOXOXOXOXOXOXOXOXOXOXOXOXOXOXOXOXOXOXI.. Q OXOXOXOXOXOXOXOXOXOXOXOXOXOXOXOXOXOXOXOXOXOXOX$Xx.  ' ",
"OXOXOXOXOXOXOXOXOXOXOXOXOXOXOXOXOXOXOXOXK.$ _ &XOXOXOXOXOXOXOXOXOXOXOXOXOXOXOXOXOXOXOXOXOXOXOXz.$ Q ",
"OXOXOXOXOXOXOXOXOXOXOXOXOXOXOXOXOXOXOXOXK.o ,.OXOXOXOXOXOXOXOXOXOXOXOXOXOXOXOXOXOXOXOXOXOXOXOXz.  Q ",
"OXOXOXOXOXOXOXOXOXOXOXOXOXOXOXOXOXOXOXOXI.% 0.OXOXOXOXOXOXOXOXOXOXOXOXOXOXOXOXOXOXOXOXOXOXOXOXz.$ ' ",
"OXOXOXOXOXOXOXOXOXOXOXOXOXOXOXOXOXOXOXOXK.% q.OXOXOXOXOXOXOXOXOXOXOXOXOXOXOXOXOXOXOXOXOXOXOXOXz.  ' ",
"OXOXOXOXOXOXOX.XOXOXOXOXOXOXOXOXOXOX,X,XK.. ,.,XOXOXOXOXOXOX.X,XOXOXOXOXOXOX,X,XOXOXOXOXOXOXOXz., Q ",
").OXOXOXOXOXOX,XOXOXOXOXOXOXOXOXOXOX.X3XI.1 { *XOXOXOXOXOXOXOX3XOXOXOXOXOX.X.X,XOXOXOXOXOXOXOXz.$ { ",
"{ { { { { { { { Q Q { { { { { q.Q { { { _ 1 ,.{ { q.{ q.{ o.{ { o.o.o.o.o.o.{ { e.{ { { o.{ q.{ $ { ",
"z g x i b g x 1 g x 1 ; 1 1 1 g x i 1 1 1 g g x g 1 i 1 g g g x g g g 1 1 ; 2 4 1 g 1 1 1 ; 1 g g g ",
"0X0X0X0X0X0X8X0X0X9.G qXqXqX0X0XqX9X0XqXqXqX0X0X0X0X0X0X0X0X0XqX0X,X1 ,.8XqX0X0X8X8X8X8X8X8X0X0X8X8X",
",X,X,X,X,X,X,X5X$Xd.F ,X$X,X,X,X,X$X$X,X,X$XOXOX,XOX,X,X,X,X,X,X$X(.1 ,.$X,X$X1X,X5X5X,X,X5X,X,X,X5X",
"OXOXOXOXOXOXOXOX$Xt.G ;XOXOXOXOXOXOXOXOXOXOXOXOXOXOXOXOXOXOXOXOX,X~.j 0.OX.XOXOXOXOXOXOXOXOXOXOXOXOX",
"OXOXOXOXOXOXOXOX,X9.G 3XOXOXOXOXOXOXOXOXOXOXOXOXOXOXOXOXOXOXOXOX.X^.b { OX.XOXOXOXOXOXOXOXOXOXOXOXOX",
"OXOXOXOXOXOXOXOX;X,.A ;XOXOXOXOXOXOXOXOXOXOXOXOXOXOXOXOXOXOXOXOXOX~.i 9.OXOXOXOXOXOXOXOXOXOXOXOXOXOX",
"OXOXOXOXOXOXOXOXOXd.M 5XOXOXOXOXOXOXOXOXOXOXOXOXOXOXOXOXOXOXOXOXOX~.i { OXOXOXOXOXOXOXOXOXOXOXOXOXOX",
"OXOXOXOXOXOXOXOX,Xd.M 5XOXOXOXOXOXOXOXOXOXOXOXOXOXOXOXOXOXOXOXOXOX~.1 9.OXOXOXOXOXOXOXOXOXOXOXOXOXOX",
"OXOXOXOXOXOXOXOX,Xt.M ,XOXOXOXOXOXOXOXOXOXOXOXOXOXOXOXOXOXOXOXOXOX~.1 e.OXOXOXOXOXOXOXOXOXOXOXOXOXOX",
"OXOXOXOX.XOX,X,X3Xt.Z 5XOXOXOXOXOXOXOXOXOXOXOXOXOXOXOXOXOXOXOXOX,X~.1 9.OXOXOXOXOXOXOXOXOXOXOXOXOXOX",
"OXOXOXOX.X.X.X,X,Xt.Z *XOXOXOXOXOXOXOXOXOXOXOXOXOXOXOXOXOXOXOXOX,X~.$ o.OXOXOXOXOXOXOXOXOXOXOXOX,X*X",
".X.XOXOX}.}.}.`.OXt.S 5X.X.XOXOX`.`.OX`.`.OX.X`.OX`.`..X`.`..X`.(.~.& 9.,X.X.X.X.X.X`..X`.`..X`.`.`.",
"q.{ 0.{ q.q.,.{ q.0.K 9.{ { q.{ { _ q.{ _ { { _ { q._ q.{ _ q.{ { 9.v 9.{ { { _ { q._ o.{ _ { q.{ _ "
};
